<svg xmlns="http://www.w3.org/2000/svg" xmlns:xlink="http://www.w3.org/1999/xlink" width="250" viewBox="0 0 187.5 187.499992" height="250" preserveAspectRatio="xMidYMid meet"><defs><clipPath id="f1c5fa0d39"><path d="M 0.527344 0.527344 L 186.78125 0.527344 L 186.78125 186.78125 L 0.527344 186.78125 Z M 0.527344 0.527344 " clip-rule="nonzero"></path></clipPath></defs><g clip-path="url(#f1c5fa0d39)"><path fill="#000000" d="M 93.65625 0.527344 C 42.226562 0.527344 0.527344 42.226562 0.527344 93.65625 C 0.527344 145.082031 42.226562 186.78125 93.65625 186.78125 C 145.082031 186.78125 186.78125 145.082031 186.78125 93.65625 C 186.78125 42.226562 145.082031 0.527344 93.65625 0.527344 Z M 121.714844 132.457031 L 66.492188 132.457031 L 66.492188 121.265625 L 91.480469 96.8125 C 102.253906 86.304688 104.953125 82.332031 104.953125 77.34375 C 104.953125 71.1875 99.964844 66.835938 92.964844 66.835938 C 85.535156 66.835938 80.445312 71.714844 80.445312 78.769531 L 80.445312 79.089844 L 65.59375 79.089844 L 65.59375 78.824219 C 65.59375 64.023438 76.945312 53.945312 93.5 53.945312 C 109.46875 53.945312 120.605469 63.125 120.605469 76.277344 C 120.605469 84.605469 116.097656 91.769531 102.835938 104.238281 L 88.191406 118.195312 L 88.191406 119.148438 L 121.714844 119.148438 Z M 121.714844 132.457031 " fill-opacity="1" fill-rule="nonzero"></path></g></svg>