<svg xmlns="http://www.w3.org/2000/svg" xmlns:xlink="http://www.w3.org/1999/xlink" width="250" viewBox="0 0 187.5 187.499992" height="250" preserveAspectRatio="xMidYMid meet"><defs><clipPath id="84b8bbdcf5"><path d="M 0.601562 0.601562 L 186.109375 0.601562 L 186.109375 186.109375 L 0.601562 186.109375 Z M 0.601562 0.601562 " clip-rule="nonzero"></path></clipPath></defs><g clip-path="url(#84b8bbdcf5)"><path fill="#000000" d="M 93.355469 0.601562 C 42.132812 0.601562 0.601562 42.132812 0.601562 93.355469 C 0.601562 144.578125 42.132812 186.109375 93.355469 186.109375 C 144.578125 186.109375 186.109375 144.578125 186.109375 93.355469 C 186.109375 42.132812 144.578125 0.601562 93.355469 0.601562 Z M 92.984375 133.433594 C 75.972656 133.433594 64.457031 124.027344 63.769531 109.65625 L 79.042969 109.65625 C 79.519531 116.101562 84.960938 120.167969 93.148438 120.167969 C 101.125 120.167969 106.671875 115.679688 106.671875 109.179688 C 106.671875 102.523438 101.441406 98.394531 92.882812 98.394531 L 83.421875 98.394531 L 83.421875 86.507812 L 92.722656 86.507812 C 99.964844 86.507812 104.871094 82.28125 104.871094 76.042969 C 104.871094 69.914062 100.117188 66 92.667969 66 C 85.269531 66 80.355469 70.175781 79.9375 76.785156 L 65.199219 76.785156 C 65.722656 62.359375 76.453125 53.269531 93.09375 53.269531 C 108.730469 53.269531 119.984375 61.828125 119.984375 73.824219 C 119.984375 82.652344 114.433594 89.515625 105.929688 91.261719 L 105.929688 92.210938 C 116.398438 93.371094 122.945312 100.351562 122.945312 110.390625 C 122.945312 123.761719 110.367188 133.433594 92.984375 133.433594 Z M 92.984375 133.433594 " fill-opacity="1" fill-rule="nonzero"></path></g></svg>