<svg xmlns="http://www.w3.org/2000/svg" xmlns:xlink="http://www.w3.org/1999/xlink" width="250" viewBox="0 0 187.5 187.499992" height="250" preserveAspectRatio="xMidYMid meet"><defs><clipPath id="b0de5c12c8"><path d="M 0.601562 0.601562 L 186.109375 0.601562 L 186.109375 186.109375 L 0.601562 186.109375 Z M 0.601562 0.601562 " clip-rule="nonzero"></path></clipPath></defs><g clip-path="url(#b0de5c12c8)"><path fill="#000000" d="M 93.355469 0.601562 C 42.132812 0.601562 0.601562 42.132812 0.601562 93.355469 C 0.601562 144.578125 42.132812 186.109375 93.355469 186.109375 C 144.578125 186.109375 186.109375 144.578125 186.109375 93.355469 C 186.109375 42.132812 144.578125 0.601562 93.355469 0.601562 Z M 88.402344 55.238281 L 110.761719 55.238281 L 110.761719 104.90625 L 120.742188 104.90625 L 120.742188 118.160156 L 110.761719 118.160156 L 110.761719 131.472656 L 95.53125 131.472656 L 95.53125 118.160156 L 58.226562 118.160156 L 58.226562 104.058594 C 65.097656 91.113281 75.039062 75.363281 88.402344 55.238281 Z M 95.0625 67.648438 C 88.089844 78.058594 81.273438 88.726562 72.554688 104.527344 L 72.554688 105.371094 L 95.90625 105.371094 L 95.90625 67.648438 Z M 95.0625 67.648438 " fill-opacity="1" fill-rule="nonzero"></path></g></svg>