<svg xmlns="http://www.w3.org/2000/svg" xmlns:xlink="http://www.w3.org/1999/xlink" width="200" viewBox="0 0 150 149.999998" height="200" preserveAspectRatio="xMidYMid meet"><path fill="#000000" d="M 74.265625 0.375 C 65.515625 18.558594 34.347656 36.191406 72.78125 64.214844 C 83.375 72.074219 101.144531 76.859375 92.082031 95.390625 C 91.277344 96.804688 92.683594 97.191406 93.941406 96.132812 C 106.929688 81.097656 128.046875 57.3125 110.261719 37.941406 C 100.148438 27.003906 79.4375 19.828125 75.308594 9.441406 C 74.511719 7.429688 75.390625 4.523438 76.5 2.230469 C 77.386719 0.0976562 74.742188 -0.464844 74.269531 0.371094 Z M 74.265625 0.375 " fill-opacity="1" fill-rule="evenodd"></path><path fill="#000000" d="M 74.734375 0.375 C 65.988281 18.558594 34.820312 36.191406 73.253906 64.214844 C 83.847656 72.074219 101.617188 76.859375 92.554688 95.390625 C 91.746094 96.804688 93.15625 97.191406 94.414062 96.132812 C 107.398438 81.097656 128.519531 57.3125 110.734375 37.941406 C 100.621094 27.003906 79.910156 19.828125 75.78125 9.441406 C 74.980469 7.429688 75.863281 4.523438 76.96875 2.230469 C 77.859375 0.0976562 75.214844 -0.464844 74.742188 0.371094 Z M 74.734375 0.375 " fill-opacity="1" fill-rule="evenodd"></path><path fill="#000000" d="M 56.300781 63.304688 C 51.8125 75.539062 29.097656 89.621094 59.417969 105.859375 C 66.457031 110.050781 75.480469 115.292969 74.511719 122.960938 C 74.132812 123.9375 75.015625 124.074219 75.683594 123.28125 C 85.664062 111.800781 93.183594 95.464844 80.941406 84.460938 C 74.550781 78.265625 59.410156 74.890625 57.785156 64.316406 C 58.152344 62.867188 56.511719 62.730469 56.292969 63.3125 Z M 56.300781 63.304688 " fill-opacity="1" fill-rule="evenodd"></path><path fill="#000000" d="M 35.734375 127.746094 L 112.375 127.746094 L 112.375 137.15625 L 35.734375 137.15625 Z M 35.734375 127.746094 " fill-opacity="1" fill-rule="nonzero"></path><path fill="#000000" d="M 35.824219 127.484375 L 32.441406 136.992188 L 38.242188 137.074219 Z M 112.308594 127.484375 L 115.691406 136.992188 L 109.886719 137.074219 Z M 51.894531 134.628906 L 57.546875 150 L 90.769531 149.882812 L 95.972656 134.628906 Z M 51.894531 134.628906 " fill-opacity="1" fill-rule="evenodd"></path></svg>