<svg xmlns="http://www.w3.org/2000/svg" xmlns:xlink="http://www.w3.org/1999/xlink" width="200" viewBox="0 0 150 149.999998" height="200" preserveAspectRatio="xMidYMid meet"><path fill="#ffffff" d="M 74.609375 118.28125 C 75.609375 113.96875 77.949219 97.441406 78.371094 92.578125 C 76.53125 86.78125 66.371094 85.039062 59.480469 92.359375 C 65.558594 102.898438 68.921875 110.449219 74.609375 118.28125 Z M 74.609375 118.28125 " fill-opacity="1" fill-rule="nonzero"></path><path fill="#ffffff" d="M 101.449219 10.628906 L 72.601562 10.628906 L 62.738281 72.171875 C 62.523438 72.179688 62.304688 72.203125 62.089844 72.238281 C 40.300781 75.121094 23.390625 93.480469 23.550781 114 C 23.523438 115.917969 23.683594 117.824219 24.03125 119.710938 C 24.382812 121.597656 24.910156 123.433594 25.621094 125.21875 C 26.332031 127.003906 27.210938 128.699219 28.253906 130.308594 C 29.300781 131.921875 30.492188 133.414062 31.828125 134.789062 C 32.96875 135.996094 34.222656 137.074219 35.582031 138.023438 C 36.941406 138.976562 38.382812 139.78125 39.902344 140.4375 C 41.425781 141.097656 43 141.59375 44.625 141.933594 C 46.25 142.273438 47.890625 142.445312 49.550781 142.449219 C 52.140625 142.449219 54.660156 142.03125 57.109375 141.191406 C 68.878906 137.191406 72.800781 127.289062 74.609375 118.261719 C 75.128906 108.179688 69.761719 98.261719 59.46875 92.359375 L 56.238281 112.859375 C 55.238281 118.679688 53.851562 122.179688 50.941406 123.179688 C 50.46875 123.3125 49.984375 123.375 49.492188 123.371094 C 49.003906 123.367188 48.523438 123.296875 48.050781 123.160156 C 47.578125 123.023438 47.136719 122.824219 46.71875 122.566406 C 46.300781 122.304688 45.929688 121.992188 45.601562 121.628906 C 44.578125 120.597656 43.804688 119.402344 43.28125 118.046875 C 42.757812 116.6875 42.53125 115.28125 42.601562 113.828125 C 42.5 103.578125 50.550781 95.53125 59.441406 92.359375 C 62.351562 91.335938 65.351562 90.839844 68.441406 90.871094 C 71.84375 90.910156 75.152344 91.484375 78.371094 92.589844 C 90.371094 95.429688 97.710938 108.179688 99.488281 121.980469 L 100.550781 129.738281 L 120.550781 129.738281 Z M 80.910156 73.46875 L 86.671875 29.46875 L 87.378906 29.46875 L 93.78125 78.601562 C 89.699219 76.371094 85.40625 74.660156 80.910156 73.46875 Z M 80.910156 73.46875 " fill-opacity="1" fill-rule="nonzero"></path></svg>