<svg xmlns="http://www.w3.org/2000/svg" xmlns:xlink="http://www.w3.org/1999/xlink" width="200" viewBox="0 0 150 149.999998" height="200" preserveAspectRatio="xMidYMid meet"><path fill="#000000" d="M 99.875 15.261719 L 50.125 15.261719 L 0 65.375 L 14.21875 65.375 L 57.230469 22.375 L 100.238281 65.382812 L 150 65.382812 L 99.875 15.269531 M 96.800781 73.695312 L 57.230469 34.117188 L 25.0625 66.28125 L 25.0625 97.449219 C 25.0625 97.996094 25.117188 98.535156 25.222656 99.070312 C 25.328125 99.605469 25.488281 100.125 25.695312 100.628906 C 25.90625 101.132812 26.160156 101.609375 26.464844 102.0625 C 26.765625 102.515625 27.113281 102.9375 27.496094 103.320312 C 27.882812 103.707031 28.300781 104.050781 28.753906 104.355469 C 29.207031 104.65625 29.6875 104.914062 30.191406 105.121094 C 30.695312 105.332031 31.214844 105.488281 31.75 105.59375 C 32.285156 105.703125 32.824219 105.753906 33.367188 105.757812 L 71.351562 105.757812 L 100.332031 134.738281 L 100.332031 105.757812 L 116.570312 105.757812 C 117.113281 105.757812 117.65625 105.703125 118.191406 105.597656 C 118.726562 105.488281 119.246094 105.332031 119.75 105.125 C 120.253906 104.914062 120.734375 104.660156 121.1875 104.355469 C 121.640625 104.050781 122.0625 103.707031 122.445312 103.320312 C 122.832031 102.9375 123.175781 102.515625 123.480469 102.0625 C 123.785156 101.609375 124.039062 101.128906 124.25 100.625 C 124.457031 100.121094 124.613281 99.601562 124.722656 99.066406 C 124.828125 98.53125 124.882812 97.988281 124.882812 97.445312 L 124.882812 73.6875 L 96.792969 73.6875 Z M 96.800781 73.695312 " fill-opacity="1" fill-rule="nonzero"></path></svg>